<svg id="Layer_1" data-name="Layer 1" xmlns="http://www.w3.org/2000/svg" viewBox="0 0 321.59 329.65"><defs><style>.cls-1{fill:#202020;}</style></defs><title>pool_add-01</title><path class="cls-1" d="M296.32,47.82H269.76V21.26a19,19,0,1,0-37.94,0V47.82H205.26a19,19,0,0,0-19,19h0a19,19,0,0,0,19,19h26.56v26.56a19,19,0,1,0,37.94,0V85.76h26.56a19,19,0,0,0,19-19h0A19,19,0,0,0,296.32,47.82Z"/><path class="cls-1" d="M277.76,93.76v18.56a27,27,0,1,1-53.94,0V93.76H205.26a27,27,0,0,1-14.84-49.47H79.29a70,70,0,0,0-70,70v145a70,70,0,0,0,70,70h145a70,70,0,0,0,70-70v-145a70,70,0,0,0-3.06-20.53Zm-170.47,154a19.5,19.5,0,1,1-39,0v-74a19.5,19.5,0,0,1,39,0Zm64-.5a19.5,19.5,0,1,1-39,0v-120a19.5,19.5,0,1,1,39,0Zm63,.5a19.5,19.5,0,1,1-39,0v-26a19.5,19.5,0,0,1,39,0Z"/><path class="cls-1" d="M250.79,131.29a19,19,0,0,0,19-19V85.76h18.45A70,70,0,0,0,231.82,44.7v3.12H205.26a19,19,0,0,0-19,19h0a19,19,0,0,0,19,19h26.56v26.56A19,19,0,0,0,250.79,131.29Z"/></svg>