<svg id="Layer_1" data-name="Layer 1" xmlns="http://www.w3.org/2000/svg" viewBox="0 0 321.59 329.65"><defs><style>.cls-1{fill:#202020;}</style></defs><title>pool_magnify</title><path class="cls-1" d="M247.16,113.17A42.59,42.59,0,0,0,282.4,94.38a70,70,0,0,0-67.11-50.09h-1.53a42.52,42.52,0,0,0,33.4,68.88Z"/><path class="cls-1" d="M284.6,104.51A50.51,50.51,0,0,1,204,44.29H182.27a70,70,0,0,0,86.43,93,12.69,12.69,0,0,0,.87,2l15.72,29V114.29A70.14,70.14,0,0,0,284.6,104.51Z"/><path class="cls-1" d="M264.5,146.69a77.94,77.94,0,0,1-90.74-102.4H70.29a70,70,0,0,0-70,70v145a70,70,0,0,0,70,70h145a70,70,0,0,0,70-70V185ZM98.29,247.79a19.5,19.5,0,1,1-39,0v-74a19.5,19.5,0,1,1,39,0Zm64-.5a19.5,19.5,0,0,1-39,0v-120a19.5,19.5,0,0,1,39,0Zm63,.5a19.5,19.5,0,1,1-39,0v-26a19.5,19.5,0,0,1,39,0Z"/><path class="cls-1" d="M308.63,37.26a70,70,0,1,0-39.93,100,12.69,12.69,0,0,0,.87,2l27.68,51a13,13,0,0,0,22.85-12.41l-27.68-51A12.94,12.94,0,0,0,291.2,125,70,70,0,0,0,308.63,37.26ZM271.22,115A50.51,50.51,0,1,1,291.5,46.56,50.51,50.51,0,0,1,271.22,115Z"/></svg>